<svg xmlns="http://www.w3.org/2000/svg" width="16" height="16" viewBox="0 0 16 16"><path fill="#222" d="M7.973.125c-.43.012-.782.215-1.004.414-.223.2-.367.406-.496.621-.258.43-.442.903-.621 1.371-.18.465-.344.93-.497 1.27-.082.187-.062.16-.113.234l-3.398-.008a1.01 1.01 0 0 0-.977.696c-.23.746.102 1.226.371 1.648.27.418.61.813.953 1.2.344.382.688.75.95 1.054.257.305.418.605.39.52-.082-.247-.015.043-.117.39s-.27.809-.434 1.274c-.16.468-.32.941-.398 1.43-.039.241-.062.491-.008.784.051.297.227.692.59.938.36.242.773.27 1.074.234.305-.035.547-.125.785-.226.48-.203.93-.485 1.375-.766.442-.281.875-.562 1.215-.758.344-.195.668-.234.446-.234-.25 0 .07.035.402.23.332.196.75.485 1.184.77.433.281.867.566 1.335.773.23.102.473.196.778.23.305.036.734 0 1.094-.26a1 1 0 0 0 .113-.102c.515-.512.558-1.215.476-1.73-.082-.513-.265-.974-.441-1.415-.18-.441-.352-.86-.445-1.184s-.07-.53-.075-.523c-.054.16.086-.11.36-.371.273-.266.648-.594 1.023-.953.375-.356.75-.735 1.047-1.192.297-.46.563-1.101.313-1.793a1.02 1.02 0 0 0-.961-.66h-3.598c-.02-.031-.02-.023-.039-.066-.145-.278-.32-.746-.5-1.235-.18-.492-.36-1.003-.598-1.464a2.7 2.7 0 0 0-.464-.672C8.848.37 8.469.114 7.973.12zm0 0"/></svg>
